# xmcd
#
# Track frame offsets: 
#        162
#        11712
#        21687
#        39417
#        48662
#        62370
#        73995
#        89840
#        101127
#        115040
#        127150
#        135542
#        150585
#        168095
#        184115
#        193710
#        209452
#        219532
#        228222
#        242145
#        252252
#        266487
#        277490
#        286795
#        299577
#        316280
#
# Disc length: 4331 seconds
#
# Revision: 2
# Processed by: cddbd v1.5.1PL2 Copyright (c) Steve Scherf et al.
# Submitted via: ExactAudioCopy v0.95a2
#
DISCID=9910e91a
DTITLE=John Jackson - Don't Let Your Deal Go Down
DYEAR=1992
DGENRE=Blues
TTITLE0=Going Down in Georgia on a Horn
TTITLE1=Black Snake Moan
TTITLE2=John Henry
TTITLE3=If Hattie Wants to LU, Let Her LU Like a Man
TTITLE4=Nobody's Business but Mine
TTITLE5=John's Rag
TTITLE6=Boats Up the River
TTITLE7=Rattlesnakin' Daddy
TTITLE8=Flat Foot and Buck Dance
TTITLE9=Bear Cat Blues
TTITLE10=Reuben
TTITLE11=Rocks and Gravel
TTITLE12=Going Down the Road Fellin' Bad
TTITLE13=Police Dog Blues
TTITLE14=Don't Let Your Deal Go Down
TTITLE15=Muleskinner Blues
TTITLE16=I Bring My Money
TTITLE17=John's Ragtime
TTITLE18=Red River Blues
TTITLE19=Knife Blues
TTITLE20=Trucking Little Baby
TTITLE21=Blind Blake's Rag
TTITLE22=Goodbye Booze
TTITLE23=Graveyard Blues
TTITLE24=Early Morning Blues
TTITLE25=You Ain't No Woman
EXTD=
EXTT0=
EXTT1=
EXTT2=
EXTT3=
EXTT4=
EXTT5=
EXTT6=
EXTT7=
EXTT8=
EXTT9=
EXTT10=
EXTT11=
EXTT12=
EXTT13=
EXTT14=
EXTT15=
EXTT16=
EXTT17=
EXTT18=
EXTT19=
EXTT20=
EXTT21=
EXTT22=
EXTT23=
EXTT24=
EXTT25=
PLAYORDER=
